<?xml version="1.0" encoding="UTF-8"?>
<svg id="Calque_2" data-name="Calque 2" xmlns="http://www.w3.org/2000/svg" viewBox="0 0 510.82 277.64">
  <defs>
    <style>
      .cls-1 {
        stroke: #000;
        stroke-miterlimit: 10;
      }
    </style>
  </defs>
  <g id="Calque_1-2" data-name="Calque 1">
    <g>
      <path d="M366.45,244.68v29.25l-216.22.7v-101.23h4.32v-2.75h-22.54v2.75h4.32v101.23h-4.32v2.75l248.25-.7v-32.01h-13.81ZM143.29,274.63h-3.47v-101.23h3.47v101.23ZM373.4,273.93h-3.47v-26.5h3.47v26.5Z"/>
      <rect x="139.82" y="173.4" width="3.47" height="101.23"/>
      <path d="M202.16,264.27h-15.11v-1.35c-2.15,1.21-4.97,1.82-8.45,1.82-8.35,0-12.53-2.92-12.53-8.76v-39.6h-3.65v-1.72h15.11v44.54c0,2.42,1.43,3.63,4.3,3.63,1.81,0,3.56-.54,5.23-1.63v-44.82h-3.65v-1.72h15.11v47.89h3.65v1.72ZM174.59,263.01c-1.86-1.21-2.79-2.89-2.79-5.03v-41.6h-2.94v40.53c0,3.42,1.91,5.45,5.73,6.1ZM192.78,262.54v-46.17h-2.94v46.17h2.94Z"/>
      <path d="M265.52,264.27h-15.11v-44.54c0-2.42-1.41-3.63-4.22-3.63-2.2,0-4.39.76-6.59,2.28.86,1.24,1.29,2.76,1.29,4.57v39.6h3.65v1.72h-15.04v-44.54c0-2.42-1.43-3.63-4.3-3.63-1.86,0-3.63.54-5.3,1.63v44.82h3.72v1.72h-18.83v-1.72h3.72v-46.17h-3.72v-1.72h15.11v1.35c2.15-1.21,4.99-1.82,8.52-1.82,4.73,0,8.11.95,10.17,2.84,2.91-1.89,6.52-2.84,10.81-2.84,8.31,0,12.46,2.92,12.46,8.76v39.6h3.65v1.72ZM214.26,262.54v-46.17h-2.94v46.17h2.94ZM235.16,262.54v-41.23c0-2.67-1.65-4.44-4.94-5.31,1.34.87,2,2.36,2,4.47v42.07h2.94ZM256.14,262.54v-41.23c0-2.67-1.65-4.44-4.94-5.31,1.34.87,2,2.36,2,4.47v42.07h2.94Z"/>
      <path class="cls-1" d="M303.11,255c0,2.73-1.56,5.04-4.69,6.92-3.13,1.88-7.08,2.82-11.85,2.82s-8.74-.94-11.89-2.82c-3.15-1.88-4.73-4.18-4.73-6.92v-31.07c0-2.73,1.57-5.04,4.73-6.92,3.15-1.88,7.11-2.82,11.89-2.82s8.72.94,11.85,2.82c3.13,1.88,4.69,4.19,4.69,6.92v16.3h-21.7v18.96c0,2.55,1.72,3.82,5.16,3.82s5.08-1.27,5.08-3.82v-10.11h11.46v5.92ZM277.62,261.61c-1.29-1.21-1.93-2.81-1.93-4.8v-34.71c0-1.99.64-3.59,1.93-4.8-3.25,1.46-4.87,3.43-4.87,5.92v32.47c0,2.49,1.62,4.46,4.87,5.92ZM291.66,238.51v-18.77c0-2.55-1.7-3.82-5.08-3.82s-5.16,1.27-5.16,3.82v18.77h10.24ZM297.39,238.51v-16.12c0-2.61-1.77-4.64-5.3-6.1,1.57,1.09,2.36,2.67,2.36,4.75v17.47h2.94ZM297.39,256.53v-5.73h-2.94v7.08c0,2.08-.79,3.67-2.36,4.75,3.53-1.46,5.3-3.49,5.3-6.1Z"/>
      <path class="cls-1" d="M347.94,264.27h-15.04v-44.54c0-2.42-1.43-3.63-4.3-3.63-1.86,0-3.63.54-5.3,1.63v44.82h3.72v1.72h-18.83v-1.72h3.72v-46.17h-3.72v-1.72h15.11v1.35c2.15-1.21,4.99-1.82,8.52-1.82,8.31,0,12.46,2.92,12.46,8.76v39.6h3.65v1.72ZM317.65,262.54v-46.17h-2.94v46.17h2.94ZM338.56,262.54v-41.23c0-2.67-1.65-4.44-4.94-5.31,1.34.87,2.01,2.36,2.01,4.47v42.07h2.94Z"/>
      <path class="cls-1" d="M411.87,270.36c-1.52-2.52-3.05-4.99-4.57-7.41l.46-.37c1.37,2.55,2.74,5.15,4.11,7.79Z"/>
      <path class="cls-1" d="M415.47,277.39c-1.2-2.37-2.4-4.72-3.6-7.03"/>
      <path d="M133.78,191.97v30c-1.36,1.76-2.68,3.51-3.96,5.25-2.16,2.92-4.22,5.8-6.18,8.6-3.47,4.99-6.61,9.76-9.4,14.17-.79,1.25-1.55,2.47-2.28,3.66-2.01,3.26-3.8,6.29-5.37,9.02-3.54,6.15-5.95,10.75-7.12,13.06,1.12-2.35,3.34-7.07,6.58-13.44L0,188.89l107.77,57.64-32.94-65.99,48.8,9.46,10.14,1.97Z"/>
      <path d="M98.64,277.38c.06-.07.33-.62.79-1.58.01-.02.03-.05.04-.08"/>
      <path d="M139.82,206.32c-1.18,1.65-2.34,3.3-3.48,4.94"/>
      <path d="M150.24,192.49c-2.39,3-4.71,6.03-6.95,9.06"/>
      <path d="M150.24,202.31c-2.39,2.62-4.71,5.26-6.95,7.9"/>
      <path d="M139.82,214.37c-1.18,1.45-2.34,2.89-3.48,4.32"/>
      <path d="M98.63,277.39h0c.03-.07.29-.62.79-1.58.01-.02.03-.05.04-.08"/>
      <path class="cls-1" d="M416.07,277.39c-1.4-2.38-2.8-4.73-4.2-7.03"/>
      <polygon points="144.86 167.98 129.07 167.98 129.07 170.99 125.72 167.98 124.11 166.54 118.56 161.56 53.45 103.16 133.27 159.76 144.86 167.98"/>
      <path d="M510.82,179.85l-103.06,82.72-.46.37c-2.65-4.24-5.3-8.35-7.95-12.32-.09-.14-.18-.27-.26-.4-12.63-18.96-25.06-34.89-37.27-48.14-.83-.9-1.67-1.8-2.5-2.68-3.08-3.27-6.15-6.36-9.2-9.28-.65-.62-1.3-1.24-1.94-1.85-11.72-11-23.2-19.58-34.4-26.07-3.76-2.18-7.48-4.12-11.17-5.83-12.48-5.8-24.59-9.05-36.26-10.22-3.05-.31-6.07-.47-9.07-.5-14.07-.14-27.47,2.67-40.09,7.57-4.55,1.77-9,3.81-13.34,6.08-12.08,6.31-23.32,14.4-33.62,23.38-.69.6-1.38,1.21-2.06,1.82-2.97,2.65-5.86,5.38-8.66,8.15-1,.99-1.98,1.98-2.96,2.98-.71.72-1.41,1.45-2.11,2.18-.04.04-.08.08-.12.12h-1.33v-21.74h3.45l3.07,2.17,1.65,1.17c.17-.18.33-.37.5-.56l-22.36-73.86,59.54,40.83s.07-.05.1-.07l-58.04-115.54,70.73,107.99c.06-.03.12-.06.18-.09l2.46-67.38,34.46,56.01c.35-.04.7-.07,1.05-.1L259.88,0l4.4,126.74c1.01.08,2.03.18,3.05.3l37.8-57.48.44,70.07,69.65-109.58-57.21,117.86s.04.03.06.05l60.1-41.92-21.91,75.47,97.61-81.91-89.54,94.52c.07.09.14.18.21.27l71.69-9.1-32.4,61.95,107.01-67.39Z"/>
    </g>
  </g>
</svg>